<svg width="32" height="32" viewBox="0 0 32 32" fill="none" xmlns="http://www.w3.org/2000/svg">
<g clip-path="url(#clip0_2_68)">
<path d="M32 27.5556C32 30.0444 30.0444 32 27.5556 32H4.44444C1.95556 32 0 30.0444 0 27.5556V4.44444C0 1.95556 1.95556 0 4.44444 0H27.5556C30.0444 0 32 1.95556 32 4.44444V27.5556Z" fill="#3B5998"/>
<path d="M25.2444 16.8888H22.2222V28.4444H17.7778V16.8888H15.1111V13.3333H17.7778V11.1999C17.7778 8.08884 19.1111 6.22217 22.7555 6.22217H25.7778V9.77772H23.7333C22.3111 9.77772 22.2222 10.3111 22.2222 11.2888V13.3333H25.7778L25.2444 16.8888Z" fill="white"/>
</g>
<defs>
<clipPath id="clip0_2_68">
<rect width="32" height="32" fill="white"/>
</clipPath>
</defs>
</svg>
