<svg width="32" height="32" viewBox="0 0 32 32" fill="none" xmlns="http://www.w3.org/2000/svg">
<g clip-path="url(#clip0_2_56)">
<path d="M16 0C29.3333 0 32 2.66667 32 16C32 29.3333 29.3333 32 16 32C2.66667 32 0 29.3333 0 16C0 2.66667 2.66667 0 16 0Z" fill="url(#paint0_linear_2_56)"/>
<path fill-rule="evenodd" clip-rule="evenodd" d="M15.9998 8.34823C18.492 8.34823 18.7869 8.35789 19.7713 8.40269C20.6812 8.44416 21.1754 8.59609 21.5044 8.72389C21.9401 8.89323 22.2509 9.09549 22.5776 9.42189C22.9044 9.74863 23.1067 10.0595 23.2756 10.4952C23.4034 10.8242 23.5554 11.3184 23.5968 12.2283C23.6417 13.2123 23.6513 13.5076 23.6513 15.9998C23.6513 18.492 23.6417 18.7869 23.5968 19.7713C23.5554 20.6812 23.4034 21.1754 23.2756 21.5044C23.1064 21.9401 22.904 22.2509 22.5776 22.5776C22.2509 22.9044 21.9401 23.1067 21.5044 23.2756C21.1754 23.4034 20.6812 23.5554 19.7713 23.5968C18.7873 23.6417 18.492 23.6513 15.9998 23.6513C13.5076 23.6513 13.2123 23.6417 12.2283 23.5968C11.3184 23.5554 10.8242 23.4034 10.4952 23.2756C10.0595 23.1064 9.74863 22.904 9.42189 22.5776C9.09516 22.2509 8.89283 21.9401 8.72389 21.5044C8.59609 21.1754 8.44416 20.6812 8.40269 19.7713C8.35789 18.7873 8.34823 18.492 8.34823 15.9998C8.34823 13.5076 8.35789 13.2126 8.40269 12.2283C8.44416 11.3184 8.59609 10.8242 8.72389 10.4952C8.89323 10.0595 9.09549 9.74863 9.42189 9.42189C9.74863 9.09516 10.0595 8.89283 10.4952 8.72389C10.8242 8.59609 11.3184 8.44416 12.2283 8.40269C13.2126 8.35789 13.5076 8.34823 15.9998 8.34823ZM15.9998 6.66663C13.465 6.66663 13.1471 6.67736 12.1516 6.72296C11.1584 6.76816 10.48 6.92596 9.88609 7.15676C9.27223 7.39536 8.75169 7.71436 8.23303 8.23336C7.71436 8.75209 7.39496 9.27256 7.15676 9.88609C6.92596 10.48 6.76816 11.1584 6.72296 12.1516C6.67736 13.1471 6.66663 13.465 6.66663 15.9998C6.66663 18.5346 6.67736 18.8525 6.72296 19.848C6.76816 20.8412 6.92596 21.5196 7.15676 22.1134C7.39536 22.7274 7.71436 23.2478 8.23336 23.7666C8.75243 24.2856 9.27256 24.6046 9.88649 24.8432C10.48 25.074 11.1587 25.2318 12.152 25.277C13.1474 25.3226 13.4653 25.3333 16.0002 25.3333C18.535 25.3333 18.8528 25.3226 19.8484 25.277C20.8416 25.2318 21.5203 25.074 22.1138 24.8432C22.7277 24.6046 23.2482 24.2856 23.7669 23.7666C24.286 23.2475 24.605 22.7274 24.8435 22.1134C25.0743 21.52 25.2322 20.8412 25.2774 19.848C25.3229 18.8525 25.3337 18.5346 25.3337 15.9998C25.3337 13.465 25.3229 13.1471 25.2774 12.1516C25.2322 11.1584 25.0743 10.4796 24.8435 9.88609C24.605 9.27223 24.286 8.75169 23.7669 8.23303C23.2478 7.71396 22.7277 7.39496 22.1138 7.15643C21.5196 6.92596 20.8412 6.76816 19.848 6.72296C18.8525 6.67736 18.5346 6.66663 15.9998 6.66663ZM15.9998 11.2072C13.3527 11.2072 11.2072 13.3531 11.2072 15.9998C11.2072 18.6465 13.3531 20.7923 15.9998 20.7923C18.6465 20.7923 20.7923 18.6465 20.7923 15.9998C20.7923 13.3531 18.6468 11.2072 15.9998 11.2072ZM15.9998 19.1107C14.2815 19.1107 12.8888 17.7177 12.8888 15.9998C12.8888 14.2815 14.2818 12.8888 15.9998 12.8888C17.7177 12.8888 19.1107 14.2818 19.1107 15.9998C19.1107 17.7181 17.7181 19.1107 15.9998 19.1107ZM22.102 11.0176C22.102 11.6361 21.6006 12.1375 20.982 12.1375C20.3635 12.1375 19.862 11.6361 19.862 11.0176C19.862 10.399 20.3635 9.89756 20.982 9.89756C21.6006 9.89756 22.102 10.399 22.102 11.0176Z" fill="white"/>
</g>
<defs>
<linearGradient id="paint0_linear_2_56" x1="28.5403" y1="3.77093" x2="3.36279" y2="28.3236" gradientUnits="userSpaceOnUse">
<stop stop-color="#BA00B2"/>
<stop offset="0.5" stop-color="#F40000"/>
<stop offset="1" stop-color="#FFA800"/>
</linearGradient>
<clipPath id="clip0_2_56">
<rect width="32" height="32" fill="white"/>
</clipPath>
</defs>
</svg>
