<svg width="32" height="32" viewBox="0 0 32 32" fill="none" xmlns="http://www.w3.org/2000/svg">
<g clip-path="url(#clip0_2_60)">
<path d="M16 0C29.3333 0 32 2.66667 32 16C32 29.3333 29.3333 32 16 32C2.66667 32 0 29.3333 0 16C0 2.66667 2.66667 0 16 0Z" fill="url(#paint0_linear_2_60)"/>
<path d="M7.86111 15.8659C12.5255 13.8337 15.6357 12.4939 17.1919 11.8467C21.6354 9.99851 22.5586 9.67749 23.1604 9.66673C23.2928 9.66454 23.5887 9.69734 23.7805 9.85291C23.9423 9.98425 23.9869 10.1616 24.0082 10.2862C24.0295 10.4107 24.056 10.6944 24.0349 10.916C23.7941 13.446 22.7522 19.5856 22.2222 22.4192C21.9979 23.6182 21.5562 24.0203 21.1287 24.0596C20.1996 24.1451 19.4941 23.4456 18.5941 22.8557C17.1859 21.9325 16.3903 21.3579 15.0234 20.4571C13.4437 19.4162 14.4678 18.844 15.368 17.9089C15.6037 17.6643 19.6975 13.9405 19.7767 13.6027C19.7866 13.5605 19.7959 13.403 19.7023 13.3199C19.6087 13.2368 19.4706 13.2652 19.371 13.2877C19.2298 13.3198 16.9802 14.8067 12.6221 17.7485C11.9836 18.187 11.4052 18.4007 10.887 18.3895C10.3157 18.3771 9.21681 18.0664 8.39987 17.8009C7.39783 17.4752 6.60148 17.303 6.67084 16.7499C6.70695 16.4617 7.10372 16.167 7.86111 15.8659Z" fill="white"/>
</g>
<defs>
<linearGradient id="paint0_linear_2_60" x1="16" y1="0" x2="16" y2="31.7625" gradientUnits="userSpaceOnUse">
<stop stop-color="#2AABEE"/>
<stop offset="1" stop-color="#229ED9"/>
</linearGradient>
<clipPath id="clip0_2_60">
<rect width="32" height="32" fill="white"/>
</clipPath>
</defs>
</svg>
